<svg width="500" height="400" xmlns="http://www.w3.org/2000/svg"><g fill="none" fill-rule="evenodd"><path d="M490.2 347.5L439 376.2l-40.4-18c-15.2-6.9-25-22-25-38.7l.3-164.7 116.3 192.7z" fill="#DD0F17"/><path fill="#DD0F17" d="M373.8 154.4l65 221.9 51.5-28.8z"/><path d="M399 358.6l39.9 17.7-65-222V320c0 16.7 9.8 31.8 25 38.6z" fill="#C60E15"/><path d="M10 52l52.6-28.6 39.1 17.4a42.2 42.2 0 0125.1 38.6v164.3L10 52z" fill="#DD0F17"/><path fill="#C60E15" d="M126.8 243.7L62.6 23.4 10 52z"/><path d="M101.7 40.8L62.6 23.4l64.2 220.2V79.4c0-16.7-9.8-31.8-25-38.6zM305.8 347.4l-51.3 29.1-39.9-17.6a42.2 42.2 0 01-25.1-38.6V154.6l116.3 192.8z" fill="#DD0F17"/><path fill="#DD0F17" d="M189.4 154.5l65 221.9 51.4-28.8z"/><path d="M214.5 358.7l40 17.7-65.1-222v165.7c0 16.7 9.9 31.8 25.1 38.6z" fill="#C60E15"/><path d="M193 52l52.6-28.6 39.2 17.5a42.2 42.2 0 0125 38.5v164.3L193 52z" fill="#DD0F17"/><path fill="#C60E15" d="M309.8 243.7L245.6 23.4 193 52z"/><path d="M284.8 40.8l-39.2-17.4 64.2 220.3V79.4c0-16.7-9.8-31.8-25-38.6z" fill="#DD0F17"/></g></svg>
